<?xml version="1.0" encoding="utf-8" standalone="no"?>
<!DOCTYPE svg PUBLIC "-//W3C//DTD SVG 1.1//EN"
  "http://www.w3.org/Graphics/SVG/1.1/DTD/svg11.dtd">
<!-- Created with matplotlib (https://matplotlib.org/) -->
<svg height="277.314375pt" version="1.1" viewBox="0 0 395.328125 277.314375" width="395.328125pt" xmlns="http://www.w3.org/2000/svg" xmlns:xlink="http://www.w3.org/1999/xlink">
 <metadata>
  <rdf:RDF xmlns:cc="http://creativecommons.org/ns#" xmlns:dc="http://purl.org/dc/elements/1.1/" xmlns:rdf="http://www.w3.org/1999/02/22-rdf-syntax-ns#">
   <cc:Work>
    <dc:type rdf:resource="http://purl.org/dc/dcmitype/StillImage"/>
    <dc:date>2021-03-23T20:56:10.108052</dc:date>
    <dc:format>image/svg+xml</dc:format>
    <dc:creator>
     <cc:Agent>
      <dc:title>Matplotlib v3.3.4, https://matplotlib.org/</dc:title>
     </cc:Agent>
    </dc:creator>
   </cc:Work>
  </rdf:RDF>
 </metadata>
 <defs>
  <style type="text/css">*{stroke-linecap:butt;stroke-linejoin:round;}</style>
 </defs>
 <g id="figure_1">
  <g id="patch_1">
   <path d="M 0 277.314375 
L 395.328125 277.314375 
L 395.328125 0 
L 0 0 
z
" style="fill:none;"/>
  </g>
  <g id="axes_1">
   <g id="patch_2">
    <path d="M 53.328125 239.758125 
L 388.128125 239.758125 
L 388.128125 22.318125 
L 53.328125 22.318125 
z
" style="fill:#ffffff;"/>
   </g>
   <g id="PathCollection_1">
    <defs>
     <path d="M 0 1.5 
C 0.397805 1.5 0.77937 1.341951 1.06066 1.06066 
C 1.341951 0.77937 1.5 0.397805 1.5 0 
C 1.5 -0.397805 1.341951 -0.77937 1.06066 -1.06066 
C 0.77937 -1.341951 0.397805 -1.5 0 -1.5 
C -0.397805 -1.5 -0.77937 -1.341951 -1.06066 -1.06066 
C -1.341951 -0.77937 -1.5 -0.397805 -1.5 0 
C -1.5 0.397805 -1.341951 0.77937 -1.06066 1.06066 
C -0.77937 1.341951 -0.397805 1.5 0 1.5 
z
" id="m53db138749" style="stroke:#1f77b4;"/>
    </defs>
    <g clip-path="url(#p62c6583c7a)">
     <use style="fill:#1f77b4;stroke:#1f77b4;" x="68.546307" xlink:href="#m53db138749" y="219.714269"/>
     <use style="fill:#1f77b4;stroke:#1f77b4;" x="78.17924" xlink:href="#m53db138749" y="213.843919"/>
     <use style="fill:#1f77b4;stroke:#1f77b4;" x="83.92195" xlink:href="#m53db138749" y="210.344288"/>
     <use style="fill:#1f77b4;stroke:#1f77b4;" x="93.554883" xlink:href="#m53db138749" y="210.344288"/>
     <use style="fill:#1f77b4;stroke:#1f77b4;" x="105.59605" xlink:href="#m53db138749" y="211.247418"/>
     <use style="fill:#1f77b4;stroke:#1f77b4;" x="118.748708" xlink:href="#m53db138749" y="203.909482"/>
     <use style="fill:#1f77b4;stroke:#1f77b4;" x="127.640646" xlink:href="#m53db138749" y="195.894197"/>
     <use style="fill:#1f77b4;stroke:#1f77b4;" x="132.82761" xlink:href="#m53db138749" y="190.475413"/>
     <use style="fill:#1f77b4;stroke:#1f77b4;" x="144.683528" xlink:href="#m53db138749" y="187.314455"/>
     <use style="fill:#1f77b4;stroke:#1f77b4;" x="153.760715" xlink:href="#m53db138749" y="180.08941"/>
     <use style="fill:#1f77b4;stroke:#1f77b4;" x="161.72641" xlink:href="#m53db138749" y="174.557735"/>
     <use style="fill:#1f77b4;stroke:#1f77b4;" x="168.210115" xlink:href="#m53db138749" y="169.703407"/>
     <use style="fill:#1f77b4;stroke:#1f77b4;" x="178.213545" xlink:href="#m53db138749" y="177.154235"/>
     <use style="fill:#1f77b4;stroke:#1f77b4;" x="188.957971" xlink:href="#m53db138749" y="173.203039"/>
     <use style="fill:#1f77b4;stroke:#1f77b4;" x="203.592619" xlink:href="#m53db138749" y="166.655341"/>
     <use style="fill:#1f77b4;stroke:#1f77b4;" x="210.261573" xlink:href="#m53db138749" y="157.736926"/>
     <use style="fill:#1f77b4;stroke:#1f77b4;" x="228.415947" xlink:href="#m53db138749" y="153.672838"/>
     <use style="fill:#1f77b4;stroke:#1f77b4;" x="250.645792" xlink:href="#m53db138749" y="142.609487"/>
     <use style="fill:#1f77b4;stroke:#1f77b4;" x="265.650938" xlink:href="#m53db138749" y="137.529377"/>
     <use style="fill:#1f77b4;stroke:#1f77b4;" x="280.100338" xlink:href="#m53db138749" y="129.062527"/>
     <use style="fill:#1f77b4;stroke:#1f77b4;" x="288.43653" xlink:href="#m53db138749" y="114.838218"/>
     <use style="fill:#1f77b4;stroke:#1f77b4;" x="306.220406" xlink:href="#m53db138749" y="106.032694"/>
     <use style="fill:#1f77b4;stroke:#1f77b4;" x="309.740132" xlink:href="#m53db138749" y="100.952584"/>
     <use style="fill:#1f77b4;stroke:#1f77b4;" x="315.482842" xlink:href="#m53db138749" y="90.115016"/>
     <use style="fill:#1f77b4;stroke:#1f77b4;" x="318.817319" xlink:href="#m53db138749" y="93.050191"/>
     <use style="fill:#1f77b4;stroke:#1f77b4;" x="323.633785" xlink:href="#m53db138749" y="89.550559"/>
     <use style="fill:#1f77b4;stroke:#1f77b4;" x="328.450252" xlink:href="#m53db138749" y="87.518515"/>
     <use style="fill:#1f77b4;stroke:#1f77b4;" x="332.340475" xlink:href="#m53db138749" y="84.583341"/>
     <use style="fill:#1f77b4;stroke:#1f77b4;" x="336.415947" xlink:href="#m53db138749" y="81.648166"/>
     <use style="fill:#1f77b4;stroke:#1f77b4;" x="342.714403" xlink:href="#m53db138749" y="79.277448"/>
     <use style="fill:#1f77b4;stroke:#1f77b4;" x="348.086616" xlink:href="#m53db138749" y="76.793839"/>
     <use style="fill:#1f77b4;stroke:#1f77b4;" x="362.350767" xlink:href="#m53db138749" y="72.955533"/>
     <use style="fill:#1f77b4;stroke:#1f77b4;" x="366.981984" xlink:href="#m53db138749" y="69.681685"/>
     <use style="fill:#1f77b4;stroke:#1f77b4;" x="372.909943" xlink:href="#m53db138749" y="60.989052"/>
     <use style="fill:#1f77b4;stroke:#1f77b4;" x="68.546307" xlink:href="#m53db138749" y="229.874489"/>
     <use style="fill:#1f77b4;stroke:#1f77b4;" x="78.17924" xlink:href="#m53db138749" y="224.004139"/>
     <use style="fill:#1f77b4;stroke:#1f77b4;" x="83.92195" xlink:href="#m53db138749" y="220.504508"/>
     <use style="fill:#1f77b4;stroke:#1f77b4;" x="93.554883" xlink:href="#m53db138749" y="223.891248"/>
     <use style="fill:#1f77b4;stroke:#1f77b4;" x="105.59605" xlink:href="#m53db138749" y="224.117031"/>
     <use style="fill:#1f77b4;stroke:#1f77b4;" x="118.748708" xlink:href="#m53db138749" y="219.149812"/>
     <use style="fill:#1f77b4;stroke:#1f77b4;" x="127.640646" xlink:href="#m53db138749" y="211.134527"/>
     <use style="fill:#1f77b4;stroke:#1f77b4;" x="132.82761" xlink:href="#m53db138749" y="205.715743"/>
     <use style="fill:#1f77b4;stroke:#1f77b4;" x="144.683528" xlink:href="#m53db138749" y="202.554786"/>
     <use style="fill:#1f77b4;stroke:#1f77b4;" x="153.760715" xlink:href="#m53db138749" y="195.32974"/>
     <use style="fill:#1f77b4;stroke:#1f77b4;" x="161.72641" xlink:href="#m53db138749" y="189.798065"/>
     <use style="fill:#1f77b4;stroke:#1f77b4;" x="168.210115" xlink:href="#m53db138749" y="183.250367"/>
     <use style="fill:#1f77b4;stroke:#1f77b4;" x="178.213545" xlink:href="#m53db138749" y="187.766021"/>
     <use style="fill:#1f77b4;stroke:#1f77b4;" x="188.957971" xlink:href="#m53db138749" y="181.669889"/>
     <use style="fill:#1f77b4;stroke:#1f77b4;" x="203.592619" xlink:href="#m53db138749" y="175.122191"/>
     <use style="fill:#1f77b4;stroke:#1f77b4;" x="210.261573" xlink:href="#m53db138749" y="166.203776"/>
     <use style="fill:#1f77b4;stroke:#1f77b4;" x="228.415947" xlink:href="#m53db138749" y="162.139688"/>
     <use style="fill:#1f77b4;stroke:#1f77b4;" x="250.645792" xlink:href="#m53db138749" y="142.609487"/>
     <use style="fill:#1f77b4;stroke:#1f77b4;" x="265.650938" xlink:href="#m53db138749" y="147.689597"/>
     <use style="fill:#1f77b4;stroke:#1f77b4;" x="280.100338" xlink:href="#m53db138749" y="129.062527"/>
     <use style="fill:#1f77b4;stroke:#1f77b4;" x="288.43653" xlink:href="#m53db138749" y="135.27155"/>
     <use style="fill:#1f77b4;stroke:#1f77b4;" x="306.220406" xlink:href="#m53db138749" y="129.739875"/>
     <use style="fill:#1f77b4;stroke:#1f77b4;" x="309.740132" xlink:href="#m53db138749" y="124.659765"/>
     <use style="fill:#1f77b4;stroke:#1f77b4;" x="315.482842" xlink:href="#m53db138749" y="95.195126"/>
     <use style="fill:#1f77b4;stroke:#1f77b4;" x="318.817319" xlink:href="#m53db138749" y="103.210411"/>
     <use style="fill:#1f77b4;stroke:#1f77b4;" x="323.633785" xlink:href="#m53db138749" y="99.71078"/>
     <use style="fill:#1f77b4;stroke:#1f77b4;" x="328.450252" xlink:href="#m53db138749" y="97.678736"/>
     <use style="fill:#1f77b4;stroke:#1f77b4;" x="332.340475" xlink:href="#m53db138749" y="94.743561"/>
     <use style="fill:#1f77b4;stroke:#1f77b4;" x="336.415947" xlink:href="#m53db138749" y="91.808386"/>
     <use style="fill:#1f77b4;stroke:#1f77b4;" x="342.714403" xlink:href="#m53db138749" y="89.437668"/>
     <use style="fill:#1f77b4;stroke:#1f77b4;" x="348.086616" xlink:href="#m53db138749" y="86.954059"/>
     <use style="fill:#1f77b4;stroke:#1f77b4;" x="362.350767" xlink:href="#m53db138749" y="83.115753"/>
     <use style="fill:#1f77b4;stroke:#1f77b4;" x="366.981984" xlink:href="#m53db138749" y="79.841905"/>
     <use style="fill:#1f77b4;stroke:#1f77b4;" x="372.909943" xlink:href="#m53db138749" y="71.149272"/>
     <use style="fill:#1f77b4;stroke:#1f77b4;" x="68.546307" xlink:href="#m53db138749" y="192.620348"/>
     <use style="fill:#1f77b4;stroke:#1f77b4;" x="78.17924" xlink:href="#m53db138749" y="186.749999"/>
     <use style="fill:#1f77b4;stroke:#1f77b4;" x="83.92195" xlink:href="#m53db138749" y="183.250367"/>
     <use style="fill:#1f77b4;stroke:#1f77b4;" x="93.554883" xlink:href="#m53db138749" y="183.250367"/>
     <use style="fill:#1f77b4;stroke:#1f77b4;" x="105.59605" xlink:href="#m53db138749" y="177.380018"/>
     <use style="fill:#1f77b4;stroke:#1f77b4;" x="118.748708" xlink:href="#m53db138749" y="170.042081"/>
     <use style="fill:#1f77b4;stroke:#1f77b4;" x="127.640646" xlink:href="#m53db138749" y="162.026796"/>
     <use style="fill:#1f77b4;stroke:#1f77b4;" x="132.82761" xlink:href="#m53db138749" y="156.608012"/>
     <use style="fill:#1f77b4;stroke:#1f77b4;" x="144.683528" xlink:href="#m53db138749" y="153.447055"/>
     <use style="fill:#1f77b4;stroke:#1f77b4;" x="153.760715" xlink:href="#m53db138749" y="146.22201"/>
     <use style="fill:#1f77b4;stroke:#1f77b4;" x="161.72641" xlink:href="#m53db138749" y="140.690334"/>
     <use style="fill:#1f77b4;stroke:#1f77b4;" x="168.210115" xlink:href="#m53db138749" y="135.836007"/>
     <use style="fill:#1f77b4;stroke:#1f77b4;" x="178.213545" xlink:href="#m53db138749" y="145.544662"/>
     <use style="fill:#1f77b4;stroke:#1f77b4;" x="188.957971" xlink:href="#m53db138749" y="144.415748"/>
     <use style="fill:#1f77b4;stroke:#1f77b4;" x="203.592619" xlink:href="#m53db138749" y="137.868051"/>
     <use style="fill:#1f77b4;stroke:#1f77b4;" x="210.261573" xlink:href="#m53db138749" y="128.949635"/>
     <use style="fill:#1f77b4;stroke:#1f77b4;" x="228.415947" xlink:href="#m53db138749" y="124.885547"/>
     <use style="fill:#1f77b4;stroke:#1f77b4;" x="250.645792" xlink:href="#m53db138749" y="113.822196"/>
     <use style="fill:#1f77b4;stroke:#1f77b4;" x="265.650938" xlink:href="#m53db138749" y="101.968606"/>
     <use style="fill:#1f77b4;stroke:#1f77b4;" x="280.100338" xlink:href="#m53db138749" y="101.968606"/>
     <use style="fill:#1f77b4;stroke:#1f77b4;" x="288.43653" xlink:href="#m53db138749" y="86.163819"/>
     <use style="fill:#1f77b4;stroke:#1f77b4;" x="306.220406" xlink:href="#m53db138749" y="82.325514"/>
     <use style="fill:#1f77b4;stroke:#1f77b4;" x="309.740132" xlink:href="#m53db138749" y="77.245404"/>
     <use style="fill:#1f77b4;stroke:#1f77b4;" x="315.482842" xlink:href="#m53db138749" y="66.407836"/>
     <use style="fill:#1f77b4;stroke:#1f77b4;" x="318.817319" xlink:href="#m53db138749" y="62.343748"/>
     <use style="fill:#1f77b4;stroke:#1f77b4;" x="323.633785" xlink:href="#m53db138749" y="60.763269"/>
     <use style="fill:#1f77b4;stroke:#1f77b4;" x="328.450252" xlink:href="#m53db138749" y="58.731225"/>
     <use style="fill:#1f77b4;stroke:#1f77b4;" x="332.340475" xlink:href="#m53db138749" y="55.79605"/>
     <use style="fill:#1f77b4;stroke:#1f77b4;" x="336.415947" xlink:href="#m53db138749" y="52.860876"/>
     <use style="fill:#1f77b4;stroke:#1f77b4;" x="342.714403" xlink:href="#m53db138749" y="50.490158"/>
     <use style="fill:#1f77b4;stroke:#1f77b4;" x="348.086616" xlink:href="#m53db138749" y="48.006548"/>
     <use style="fill:#1f77b4;stroke:#1f77b4;" x="362.350767" xlink:href="#m53db138749" y="44.168243"/>
     <use style="fill:#1f77b4;stroke:#1f77b4;" x="366.981984" xlink:href="#m53db138749" y="40.894394"/>
     <use style="fill:#1f77b4;stroke:#1f77b4;" x="372.909943" xlink:href="#m53db138749" y="32.201761"/>
    </g>
   </g>
   <g id="matplotlib.axis_1">
    <g id="xtick_1">
     <g id="line2d_1">
      <defs>
       <path d="M 0 0 
L 0 3.5 
" id="m0e5ed1bba8" style="stroke:#000000;stroke-width:0.8;"/>
      </defs>
      <g>
       <use style="stroke:#000000;stroke-width:0.8;" x="96.88936" xlink:href="#m0e5ed1bba8" y="239.758125"/>
      </g>
     </g>
     <g id="text_1">
      <!-- 250 -->
      <g transform="translate(87.34561 254.356562)scale(0.1 -0.1)">
       <defs>
        <path d="M 19.1875 8.296875 
L 53.609375 8.296875 
L 53.609375 0 
L 7.328125 0 
L 7.328125 8.296875 
Q 12.9375 14.109375 22.625 23.890625 
Q 32.328125 33.6875 34.8125 36.53125 
Q 39.546875 41.84375 41.421875 45.53125 
Q 43.3125 49.21875 43.3125 52.78125 
Q 43.3125 58.59375 39.234375 62.25 
Q 35.15625 65.921875 28.609375 65.921875 
Q 23.96875 65.921875 18.8125 64.3125 
Q 13.671875 62.703125 7.8125 59.421875 
L 7.8125 69.390625 
Q 13.765625 71.78125 18.9375 73 
Q 24.125 74.21875 28.421875 74.21875 
Q 39.75 74.21875 46.484375 68.546875 
Q 53.21875 62.890625 53.21875 53.421875 
Q 53.21875 48.921875 51.53125 44.890625 
Q 49.859375 40.875 45.40625 35.40625 
Q 44.1875 33.984375 37.640625 27.21875 
Q 31.109375 20.453125 19.1875 8.296875 
z
" id="DejaVuSans-50"/>
        <path d="M 10.796875 72.90625 
L 49.515625 72.90625 
L 49.515625 64.59375 
L 19.828125 64.59375 
L 19.828125 46.734375 
Q 21.96875 47.46875 24.109375 47.828125 
Q 26.265625 48.1875 28.421875 48.1875 
Q 40.625 48.1875 47.75 41.5 
Q 54.890625 34.8125 54.890625 23.390625 
Q 54.890625 11.625 47.5625 5.09375 
Q 40.234375 -1.421875 26.90625 -1.421875 
Q 22.3125 -1.421875 17.546875 -0.640625 
Q 12.796875 0.140625 7.71875 1.703125 
L 7.71875 11.625 
Q 12.109375 9.234375 16.796875 8.0625 
Q 21.484375 6.890625 26.703125 6.890625 
Q 35.15625 6.890625 40.078125 11.328125 
Q 45.015625 15.765625 45.015625 23.390625 
Q 45.015625 31 40.078125 35.4375 
Q 35.15625 39.890625 26.703125 39.890625 
Q 22.75 39.890625 18.8125 39.015625 
Q 14.890625 38.140625 10.796875 36.28125 
z
" id="DejaVuSans-53"/>
        <path d="M 31.78125 66.40625 
Q 24.171875 66.40625 20.328125 58.90625 
Q 16.5 51.421875 16.5 36.375 
Q 16.5 21.390625 20.328125 13.890625 
Q 24.171875 6.390625 31.78125 6.390625 
Q 39.453125 6.390625 43.28125 13.890625 
Q 47.125 21.390625 47.125 36.375 
Q 47.125 51.421875 43.28125 58.90625 
Q 39.453125 66.40625 31.78125 66.40625 
z
M 31.78125 74.21875 
Q 44.046875 74.21875 50.515625 64.515625 
Q 56.984375 54.828125 56.984375 36.375 
Q 56.984375 17.96875 50.515625 8.265625 
Q 44.046875 -1.421875 31.78125 -1.421875 
Q 19.53125 -1.421875 13.0625 8.265625 
Q 6.59375 17.96875 6.59375 36.375 
Q 6.59375 54.828125 13.0625 64.515625 
Q 19.53125 74.21875 31.78125 74.21875 
z
" id="DejaVuSans-48"/>
       </defs>
       <use xlink:href="#DejaVuSans-50"/>
       <use x="63.623047" xlink:href="#DejaVuSans-53"/>
       <use x="127.246094" xlink:href="#DejaVuSans-48"/>
      </g>
     </g>
    </g>
    <g id="xtick_2">
     <g id="line2d_2">
      <g>
       <use style="stroke:#000000;stroke-width:0.8;" x="143.201538" xlink:href="#m0e5ed1bba8" y="239.758125"/>
      </g>
     </g>
     <g id="text_2">
      <!-- 500 -->
      <g transform="translate(133.657788 254.356562)scale(0.1 -0.1)">
       <use xlink:href="#DejaVuSans-53"/>
       <use x="63.623047" xlink:href="#DejaVuSans-48"/>
       <use x="127.246094" xlink:href="#DejaVuSans-48"/>
      </g>
     </g>
    </g>
    <g id="xtick_3">
     <g id="line2d_3">
      <g>
       <use style="stroke:#000000;stroke-width:0.8;" x="189.513717" xlink:href="#m0e5ed1bba8" y="239.758125"/>
      </g>
     </g>
     <g id="text_3">
      <!-- 750 -->
      <g transform="translate(179.969967 254.356562)scale(0.1 -0.1)">
       <defs>
        <path d="M 8.203125 72.90625 
L 55.078125 72.90625 
L 55.078125 68.703125 
L 28.609375 0 
L 18.3125 0 
L 43.21875 64.59375 
L 8.203125 64.59375 
z
" id="DejaVuSans-55"/>
       </defs>
       <use xlink:href="#DejaVuSans-55"/>
       <use x="63.623047" xlink:href="#DejaVuSans-53"/>
       <use x="127.246094" xlink:href="#DejaVuSans-48"/>
      </g>
     </g>
    </g>
    <g id="xtick_4">
     <g id="line2d_4">
      <g>
       <use style="stroke:#000000;stroke-width:0.8;" x="235.825895" xlink:href="#m0e5ed1bba8" y="239.758125"/>
      </g>
     </g>
     <g id="text_4">
      <!-- 1000 -->
      <g transform="translate(223.100895 254.356562)scale(0.1 -0.1)">
       <defs>
        <path d="M 12.40625 8.296875 
L 28.515625 8.296875 
L 28.515625 63.921875 
L 10.984375 60.40625 
L 10.984375 69.390625 
L 28.421875 72.90625 
L 38.28125 72.90625 
L 38.28125 8.296875 
L 54.390625 8.296875 
L 54.390625 0 
L 12.40625 0 
z
" id="DejaVuSans-49"/>
       </defs>
       <use xlink:href="#DejaVuSans-49"/>
       <use x="63.623047" xlink:href="#DejaVuSans-48"/>
       <use x="127.246094" xlink:href="#DejaVuSans-48"/>
       <use x="190.869141" xlink:href="#DejaVuSans-48"/>
      </g>
     </g>
    </g>
    <g id="xtick_5">
     <g id="line2d_5">
      <g>
       <use style="stroke:#000000;stroke-width:0.8;" x="282.138074" xlink:href="#m0e5ed1bba8" y="239.758125"/>
      </g>
     </g>
     <g id="text_5">
      <!-- 1250 -->
      <g transform="translate(269.413074 254.356562)scale(0.1 -0.1)">
       <use xlink:href="#DejaVuSans-49"/>
       <use x="63.623047" xlink:href="#DejaVuSans-50"/>
       <use x="127.246094" xlink:href="#DejaVuSans-53"/>
       <use x="190.869141" xlink:href="#DejaVuSans-48"/>
      </g>
     </g>
    </g>
    <g id="xtick_6">
     <g id="line2d_6">
      <g>
       <use style="stroke:#000000;stroke-width:0.8;" x="328.450252" xlink:href="#m0e5ed1bba8" y="239.758125"/>
      </g>
     </g>
     <g id="text_6">
      <!-- 1500 -->
      <g transform="translate(315.725252 254.356562)scale(0.1 -0.1)">
       <use xlink:href="#DejaVuSans-49"/>
       <use x="63.623047" xlink:href="#DejaVuSans-53"/>
       <use x="127.246094" xlink:href="#DejaVuSans-48"/>
       <use x="190.869141" xlink:href="#DejaVuSans-48"/>
      </g>
     </g>
    </g>
    <g id="xtick_7">
     <g id="line2d_7">
      <g>
       <use style="stroke:#000000;stroke-width:0.8;" x="374.76243" xlink:href="#m0e5ed1bba8" y="239.758125"/>
      </g>
     </g>
     <g id="text_7">
      <!-- 1750 -->
      <g transform="translate(362.03743 254.356562)scale(0.1 -0.1)">
       <use xlink:href="#DejaVuSans-49"/>
       <use x="63.623047" xlink:href="#DejaVuSans-55"/>
       <use x="127.246094" xlink:href="#DejaVuSans-53"/>
       <use x="190.869141" xlink:href="#DejaVuSans-48"/>
      </g>
     </g>
    </g>
    <g id="text_8">
     <!-- Scheduled # of seconds from terminal -->
     <g transform="translate(124.665625 268.034687)scale(0.1 -0.1)">
      <defs>
       <path d="M 53.515625 70.515625 
L 53.515625 60.890625 
Q 47.90625 63.578125 42.921875 64.890625 
Q 37.9375 66.21875 33.296875 66.21875 
Q 25.25 66.21875 20.875 63.09375 
Q 16.5 59.96875 16.5 54.203125 
Q 16.5 49.359375 19.40625 46.890625 
Q 22.3125 44.4375 30.421875 42.921875 
L 36.375 41.703125 
Q 47.40625 39.59375 52.65625 34.296875 
Q 57.90625 29 57.90625 20.125 
Q 57.90625 9.515625 50.796875 4.046875 
Q 43.703125 -1.421875 29.984375 -1.421875 
Q 24.8125 -1.421875 18.96875 -0.25 
Q 13.140625 0.921875 6.890625 3.21875 
L 6.890625 13.375 
Q 12.890625 10.015625 18.65625 8.296875 
Q 24.421875 6.59375 29.984375 6.59375 
Q 38.421875 6.59375 43.015625 9.90625 
Q 47.609375 13.234375 47.609375 19.390625 
Q 47.609375 24.75 44.3125 27.78125 
Q 41.015625 30.8125 33.5 32.328125 
L 27.484375 33.5 
Q 16.453125 35.6875 11.515625 40.375 
Q 6.59375 45.0625 6.59375 53.421875 
Q 6.59375 63.09375 13.40625 68.65625 
Q 20.21875 74.21875 32.171875 74.21875 
Q 37.3125 74.21875 42.625 73.28125 
Q 47.953125 72.359375 53.515625 70.515625 
z
" id="DejaVuSans-83"/>
       <path d="M 48.78125 52.59375 
L 48.78125 44.1875 
Q 44.96875 46.296875 41.140625 47.34375 
Q 37.3125 48.390625 33.40625 48.390625 
Q 24.65625 48.390625 19.8125 42.84375 
Q 14.984375 37.3125 14.984375 27.296875 
Q 14.984375 17.28125 19.8125 11.734375 
Q 24.65625 6.203125 33.40625 6.203125 
Q 37.3125 6.203125 41.140625 7.25 
Q 44.96875 8.296875 48.78125 10.40625 
L 48.78125 2.09375 
Q 45.015625 0.34375 40.984375 -0.53125 
Q 36.96875 -1.421875 32.421875 -1.421875 
Q 20.0625 -1.421875 12.78125 6.34375 
Q 5.515625 14.109375 5.515625 27.296875 
Q 5.515625 40.671875 12.859375 48.328125 
Q 20.21875 56 33.015625 56 
Q 37.15625 56 41.109375 55.140625 
Q 45.0625 54.296875 48.78125 52.59375 
z
" id="DejaVuSans-99"/>
       <path d="M 54.890625 33.015625 
L 54.890625 0 
L 45.90625 0 
L 45.90625 32.71875 
Q 45.90625 40.484375 42.875 44.328125 
Q 39.84375 48.1875 33.796875 48.1875 
Q 26.515625 48.1875 22.3125 43.546875 
Q 18.109375 38.921875 18.109375 30.90625 
L 18.109375 0 
L 9.078125 0 
L 9.078125 75.984375 
L 18.109375 75.984375 
L 18.109375 46.1875 
Q 21.34375 51.125 25.703125 53.5625 
Q 30.078125 56 35.796875 56 
Q 45.21875 56 50.046875 50.171875 
Q 54.890625 44.34375 54.890625 33.015625 
z
" id="DejaVuSans-104"/>
       <path d="M 56.203125 29.59375 
L 56.203125 25.203125 
L 14.890625 25.203125 
Q 15.484375 15.921875 20.484375 11.0625 
Q 25.484375 6.203125 34.421875 6.203125 
Q 39.59375 6.203125 44.453125 7.46875 
Q 49.3125 8.734375 54.109375 11.28125 
L 54.109375 2.78125 
Q 49.265625 0.734375 44.1875 -0.34375 
Q 39.109375 -1.421875 33.890625 -1.421875 
Q 20.796875 -1.421875 13.15625 6.1875 
Q 5.515625 13.8125 5.515625 26.8125 
Q 5.515625 40.234375 12.765625 48.109375 
Q 20.015625 56 32.328125 56 
Q 43.359375 56 49.78125 48.890625 
Q 56.203125 41.796875 56.203125 29.59375 
z
M 47.21875 32.234375 
Q 47.125 39.59375 43.09375 43.984375 
Q 39.0625 48.390625 32.421875 48.390625 
Q 24.90625 48.390625 20.390625 44.140625 
Q 15.875 39.890625 15.1875 32.171875 
z
" id="DejaVuSans-101"/>
       <path d="M 45.40625 46.390625 
L 45.40625 75.984375 
L 54.390625 75.984375 
L 54.390625 0 
L 45.40625 0 
L 45.40625 8.203125 
Q 42.578125 3.328125 38.25 0.953125 
Q 33.9375 -1.421875 27.875 -1.421875 
Q 17.96875 -1.421875 11.734375 6.484375 
Q 5.515625 14.40625 5.515625 27.296875 
Q 5.515625 40.1875 11.734375 48.09375 
Q 17.96875 56 27.875 56 
Q 33.9375 56 38.25 53.625 
Q 42.578125 51.265625 45.40625 46.390625 
z
M 14.796875 27.296875 
Q 14.796875 17.390625 18.875 11.75 
Q 22.953125 6.109375 30.078125 6.109375 
Q 37.203125 6.109375 41.296875 11.75 
Q 45.40625 17.390625 45.40625 27.296875 
Q 45.40625 37.203125 41.296875 42.84375 
Q 37.203125 48.484375 30.078125 48.484375 
Q 22.953125 48.484375 18.875 42.84375 
Q 14.796875 37.203125 14.796875 27.296875 
z
" id="DejaVuSans-100"/>
       <path d="M 8.5 21.578125 
L 8.5 54.6875 
L 17.484375 54.6875 
L 17.484375 21.921875 
Q 17.484375 14.15625 20.5 10.265625 
Q 23.53125 6.390625 29.59375 6.390625 
Q 36.859375 6.390625 41.078125 11.03125 
Q 45.3125 15.671875 45.3125 23.6875 
L 45.3125 54.6875 
L 54.296875 54.6875 
L 54.296875 0 
L 45.3125 0 
L 45.3125 8.40625 
Q 42.046875 3.421875 37.71875 1 
Q 33.40625 -1.421875 27.6875 -1.421875 
Q 18.265625 -1.421875 13.375 4.4375 
Q 8.5 10.296875 8.5 21.578125 
z
M 31.109375 56 
z
" id="DejaVuSans-117"/>
       <path d="M 9.421875 75.984375 
L 18.40625 75.984375 
L 18.40625 0 
L 9.421875 0 
z
" id="DejaVuSans-108"/>
       <path id="DejaVuSans-32"/>
       <path d="M 51.125 44 
L 36.921875 44 
L 32.8125 27.6875 
L 47.125 27.6875 
z
M 43.796875 71.78125 
L 38.71875 51.515625 
L 52.984375 51.515625 
L 58.109375 71.78125 
L 65.921875 71.78125 
L 60.890625 51.515625 
L 76.125 51.515625 
L 76.125 44 
L 58.984375 44 
L 54.984375 27.6875 
L 70.515625 27.6875 
L 70.515625 20.21875 
L 53.078125 20.21875 
L 48 0 
L 40.1875 0 
L 45.21875 20.21875 
L 30.90625 20.21875 
L 25.875 0 
L 18.015625 0 
L 23.09375 20.21875 
L 7.71875 20.21875 
L 7.71875 27.6875 
L 24.90625 27.6875 
L 29 44 
L 13.28125 44 
L 13.28125 51.515625 
L 30.90625 51.515625 
L 35.890625 71.78125 
z
" id="DejaVuSans-35"/>
       <path d="M 30.609375 48.390625 
Q 23.390625 48.390625 19.1875 42.75 
Q 14.984375 37.109375 14.984375 27.296875 
Q 14.984375 17.484375 19.15625 11.84375 
Q 23.34375 6.203125 30.609375 6.203125 
Q 37.796875 6.203125 41.984375 11.859375 
Q 46.1875 17.53125 46.1875 27.296875 
Q 46.1875 37.015625 41.984375 42.703125 
Q 37.796875 48.390625 30.609375 48.390625 
z
M 30.609375 56 
Q 42.328125 56 49.015625 48.375 
Q 55.71875 40.765625 55.71875 27.296875 
Q 55.71875 13.875 49.015625 6.21875 
Q 42.328125 -1.421875 30.609375 -1.421875 
Q 18.84375 -1.421875 12.171875 6.21875 
Q 5.515625 13.875 5.515625 27.296875 
Q 5.515625 40.765625 12.171875 48.375 
Q 18.84375 56 30.609375 56 
z
" id="DejaVuSans-111"/>
       <path d="M 37.109375 75.984375 
L 37.109375 68.5 
L 28.515625 68.5 
Q 23.6875 68.5 21.796875 66.546875 
Q 19.921875 64.59375 19.921875 59.515625 
L 19.921875 54.6875 
L 34.71875 54.6875 
L 34.71875 47.703125 
L 19.921875 47.703125 
L 19.921875 0 
L 10.890625 0 
L 10.890625 47.703125 
L 2.296875 47.703125 
L 2.296875 54.6875 
L 10.890625 54.6875 
L 10.890625 58.5 
Q 10.890625 67.625 15.140625 71.796875 
Q 19.390625 75.984375 28.609375 75.984375 
z
" id="DejaVuSans-102"/>
       <path d="M 44.28125 53.078125 
L 44.28125 44.578125 
Q 40.484375 46.53125 36.375 47.5 
Q 32.28125 48.484375 27.875 48.484375 
Q 21.1875 48.484375 17.84375 46.4375 
Q 14.5 44.390625 14.5 40.28125 
Q 14.5 37.15625 16.890625 35.375 
Q 19.28125 33.59375 26.515625 31.984375 
L 29.59375 31.296875 
Q 39.15625 29.25 43.1875 25.515625 
Q 47.21875 21.78125 47.21875 15.09375 
Q 47.21875 7.46875 41.1875 3.015625 
Q 35.15625 -1.421875 24.609375 -1.421875 
Q 20.21875 -1.421875 15.453125 -0.5625 
Q 10.6875 0.296875 5.421875 2 
L 5.421875 11.28125 
Q 10.40625 8.6875 15.234375 7.390625 
Q 20.0625 6.109375 24.8125 6.109375 
Q 31.15625 6.109375 34.5625 8.28125 
Q 37.984375 10.453125 37.984375 14.40625 
Q 37.984375 18.0625 35.515625 20.015625 
Q 33.0625 21.96875 24.703125 23.78125 
L 21.578125 24.515625 
Q 13.234375 26.265625 9.515625 29.90625 
Q 5.8125 33.546875 5.8125 39.890625 
Q 5.8125 47.609375 11.28125 51.796875 
Q 16.75 56 26.8125 56 
Q 31.78125 56 36.171875 55.265625 
Q 40.578125 54.546875 44.28125 53.078125 
z
" id="DejaVuSans-115"/>
       <path d="M 54.890625 33.015625 
L 54.890625 0 
L 45.90625 0 
L 45.90625 32.71875 
Q 45.90625 40.484375 42.875 44.328125 
Q 39.84375 48.1875 33.796875 48.1875 
Q 26.515625 48.1875 22.3125 43.546875 
Q 18.109375 38.921875 18.109375 30.90625 
L 18.109375 0 
L 9.078125 0 
L 9.078125 54.6875 
L 18.109375 54.6875 
L 18.109375 46.1875 
Q 21.34375 51.125 25.703125 53.5625 
Q 30.078125 56 35.796875 56 
Q 45.21875 56 50.046875 50.171875 
Q 54.890625 44.34375 54.890625 33.015625 
z
" id="DejaVuSans-110"/>
       <path d="M 41.109375 46.296875 
Q 39.59375 47.171875 37.8125 47.578125 
Q 36.03125 48 33.890625 48 
Q 26.265625 48 22.1875 43.046875 
Q 18.109375 38.09375 18.109375 28.8125 
L 18.109375 0 
L 9.078125 0 
L 9.078125 54.6875 
L 18.109375 54.6875 
L 18.109375 46.1875 
Q 20.953125 51.171875 25.484375 53.578125 
Q 30.03125 56 36.53125 56 
Q 37.453125 56 38.578125 55.875 
Q 39.703125 55.765625 41.0625 55.515625 
z
" id="DejaVuSans-114"/>
       <path d="M 52 44.1875 
Q 55.375 50.25 60.0625 53.125 
Q 64.75 56 71.09375 56 
Q 79.640625 56 84.28125 50.015625 
Q 88.921875 44.046875 88.921875 33.015625 
L 88.921875 0 
L 79.890625 0 
L 79.890625 32.71875 
Q 79.890625 40.578125 77.09375 44.375 
Q 74.3125 48.1875 68.609375 48.1875 
Q 61.625 48.1875 57.5625 43.546875 
Q 53.515625 38.921875 53.515625 30.90625 
L 53.515625 0 
L 44.484375 0 
L 44.484375 32.71875 
Q 44.484375 40.625 41.703125 44.40625 
Q 38.921875 48.1875 33.109375 48.1875 
Q 26.21875 48.1875 22.15625 43.53125 
Q 18.109375 38.875 18.109375 30.90625 
L 18.109375 0 
L 9.078125 0 
L 9.078125 54.6875 
L 18.109375 54.6875 
L 18.109375 46.1875 
Q 21.1875 51.21875 25.484375 53.609375 
Q 29.78125 56 35.6875 56 
Q 41.65625 56 45.828125 52.96875 
Q 50 49.953125 52 44.1875 
z
" id="DejaVuSans-109"/>
       <path d="M 18.3125 70.21875 
L 18.3125 54.6875 
L 36.8125 54.6875 
L 36.8125 47.703125 
L 18.3125 47.703125 
L 18.3125 18.015625 
Q 18.3125 11.328125 20.140625 9.421875 
Q 21.96875 7.515625 27.59375 7.515625 
L 36.8125 7.515625 
L 36.8125 0 
L 27.59375 0 
Q 17.1875 0 13.234375 3.875 
Q 9.28125 7.765625 9.28125 18.015625 
L 9.28125 47.703125 
L 2.6875 47.703125 
L 2.6875 54.6875 
L 9.28125 54.6875 
L 9.28125 70.21875 
z
" id="DejaVuSans-116"/>
       <path d="M 9.421875 54.6875 
L 18.40625 54.6875 
L 18.40625 0 
L 9.421875 0 
z
M 9.421875 75.984375 
L 18.40625 75.984375 
L 18.40625 64.59375 
L 9.421875 64.59375 
z
" id="DejaVuSans-105"/>
       <path d="M 34.28125 27.484375 
Q 23.390625 27.484375 19.1875 25 
Q 14.984375 22.515625 14.984375 16.5 
Q 14.984375 11.71875 18.140625 8.90625 
Q 21.296875 6.109375 26.703125 6.109375 
Q 34.1875 6.109375 38.703125 11.40625 
Q 43.21875 16.703125 43.21875 25.484375 
L 43.21875 27.484375 
z
M 52.203125 31.203125 
L 52.203125 0 
L 43.21875 0 
L 43.21875 8.296875 
Q 40.140625 3.328125 35.546875 0.953125 
Q 30.953125 -1.421875 24.3125 -1.421875 
Q 15.921875 -1.421875 10.953125 3.296875 
Q 6 8.015625 6 15.921875 
Q 6 25.140625 12.171875 29.828125 
Q 18.359375 34.515625 30.609375 34.515625 
L 43.21875 34.515625 
L 43.21875 35.40625 
Q 43.21875 41.609375 39.140625 45 
Q 35.0625 48.390625 27.6875 48.390625 
Q 23 48.390625 18.546875 47.265625 
Q 14.109375 46.140625 10.015625 43.890625 
L 10.015625 52.203125 
Q 14.9375 54.109375 19.578125 55.046875 
Q 24.21875 56 28.609375 56 
Q 40.484375 56 46.34375 49.84375 
Q 52.203125 43.703125 52.203125 31.203125 
z
" id="DejaVuSans-97"/>
      </defs>
      <use xlink:href="#DejaVuSans-83"/>
      <use x="63.476562" xlink:href="#DejaVuSans-99"/>
      <use x="118.457031" xlink:href="#DejaVuSans-104"/>
      <use x="181.835938" xlink:href="#DejaVuSans-101"/>
      <use x="243.359375" xlink:href="#DejaVuSans-100"/>
      <use x="306.835938" xlink:href="#DejaVuSans-117"/>
      <use x="370.214844" xlink:href="#DejaVuSans-108"/>
      <use x="397.998047" xlink:href="#DejaVuSans-101"/>
      <use x="459.521484" xlink:href="#DejaVuSans-100"/>
      <use x="522.998047" xlink:href="#DejaVuSans-32"/>
      <use x="554.785156" xlink:href="#DejaVuSans-35"/>
      <use x="638.574219" xlink:href="#DejaVuSans-32"/>
      <use x="670.361328" xlink:href="#DejaVuSans-111"/>
      <use x="731.542969" xlink:href="#DejaVuSans-102"/>
      <use x="766.748047" xlink:href="#DejaVuSans-32"/>
      <use x="798.535156" xlink:href="#DejaVuSans-115"/>
      <use x="850.634766" xlink:href="#DejaVuSans-101"/>
      <use x="912.158203" xlink:href="#DejaVuSans-99"/>
      <use x="967.138672" xlink:href="#DejaVuSans-111"/>
      <use x="1028.320312" xlink:href="#DejaVuSans-110"/>
      <use x="1091.699219" xlink:href="#DejaVuSans-100"/>
      <use x="1155.175781" xlink:href="#DejaVuSans-115"/>
      <use x="1207.275391" xlink:href="#DejaVuSans-32"/>
      <use x="1239.0625" xlink:href="#DejaVuSans-102"/>
      <use x="1274.267578" xlink:href="#DejaVuSans-114"/>
      <use x="1313.130859" xlink:href="#DejaVuSans-111"/>
      <use x="1374.3125" xlink:href="#DejaVuSans-109"/>
      <use x="1471.724609" xlink:href="#DejaVuSans-32"/>
      <use x="1503.511719" xlink:href="#DejaVuSans-116"/>
      <use x="1542.720703" xlink:href="#DejaVuSans-101"/>
      <use x="1604.244141" xlink:href="#DejaVuSans-114"/>
      <use x="1643.607422" xlink:href="#DejaVuSans-109"/>
      <use x="1741.019531" xlink:href="#DejaVuSans-105"/>
      <use x="1768.802734" xlink:href="#DejaVuSans-110"/>
      <use x="1832.181641" xlink:href="#DejaVuSans-97"/>
      <use x="1893.460938" xlink:href="#DejaVuSans-108"/>
     </g>
    </g>
   </g>
   <g id="matplotlib.axis_2">
    <g id="ytick_1">
     <g id="line2d_8">
      <defs>
       <path d="M 0 0 
L -3.5 0 
" id="mb572c600fd" style="stroke:#000000;stroke-width:0.8;"/>
      </defs>
      <g>
       <use style="stroke:#000000;stroke-width:0.8;" x="53.328125" xlink:href="#mb572c600fd" y="222.762335"/>
      </g>
     </g>
     <g id="text_9">
      <!-- 250 -->
      <g transform="translate(27.240625 226.561553)scale(0.1 -0.1)">
       <use xlink:href="#DejaVuSans-50"/>
       <use x="63.623047" xlink:href="#DejaVuSans-53"/>
       <use x="127.246094" xlink:href="#DejaVuSans-48"/>
      </g>
     </g>
    </g>
    <g id="ytick_2">
     <g id="line2d_9">
      <g>
       <use style="stroke:#000000;stroke-width:0.8;" x="53.328125" xlink:href="#mb572c600fd" y="194.539501"/>
      </g>
     </g>
     <g id="text_10">
      <!-- 500 -->
      <g transform="translate(27.240625 198.33872)scale(0.1 -0.1)">
       <use xlink:href="#DejaVuSans-53"/>
       <use x="63.623047" xlink:href="#DejaVuSans-48"/>
       <use x="127.246094" xlink:href="#DejaVuSans-48"/>
      </g>
     </g>
    </g>
    <g id="ytick_3">
     <g id="line2d_10">
      <g>
       <use style="stroke:#000000;stroke-width:0.8;" x="53.328125" xlink:href="#mb572c600fd" y="166.316667"/>
      </g>
     </g>
     <g id="text_11">
      <!-- 750 -->
      <g transform="translate(27.240625 170.115886)scale(0.1 -0.1)">
       <use xlink:href="#DejaVuSans-55"/>
       <use x="63.623047" xlink:href="#DejaVuSans-53"/>
       <use x="127.246094" xlink:href="#DejaVuSans-48"/>
      </g>
     </g>
    </g>
    <g id="ytick_4">
     <g id="line2d_11">
      <g>
       <use style="stroke:#000000;stroke-width:0.8;" x="53.328125" xlink:href="#mb572c600fd" y="138.093833"/>
      </g>
     </g>
     <g id="text_12">
      <!-- 1000 -->
      <g transform="translate(20.878125 141.893052)scale(0.1 -0.1)">
       <use xlink:href="#DejaVuSans-49"/>
       <use x="63.623047" xlink:href="#DejaVuSans-48"/>
       <use x="127.246094" xlink:href="#DejaVuSans-48"/>
       <use x="190.869141" xlink:href="#DejaVuSans-48"/>
      </g>
     </g>
    </g>
    <g id="ytick_5">
     <g id="line2d_12">
      <g>
       <use style="stroke:#000000;stroke-width:0.8;" x="53.328125" xlink:href="#mb572c600fd" y="109.871"/>
      </g>
     </g>
     <g id="text_13">
      <!-- 1250 -->
      <g transform="translate(20.878125 113.670218)scale(0.1 -0.1)">
       <use xlink:href="#DejaVuSans-49"/>
       <use x="63.623047" xlink:href="#DejaVuSans-50"/>
       <use x="127.246094" xlink:href="#DejaVuSans-53"/>
       <use x="190.869141" xlink:href="#DejaVuSans-48"/>
      </g>
     </g>
    </g>
    <g id="ytick_6">
     <g id="line2d_13">
      <g>
       <use style="stroke:#000000;stroke-width:0.8;" x="53.328125" xlink:href="#mb572c600fd" y="81.648166"/>
      </g>
     </g>
     <g id="text_14">
      <!-- 1500 -->
      <g transform="translate(20.878125 85.447385)scale(0.1 -0.1)">
       <use xlink:href="#DejaVuSans-49"/>
       <use x="63.623047" xlink:href="#DejaVuSans-53"/>
       <use x="127.246094" xlink:href="#DejaVuSans-48"/>
       <use x="190.869141" xlink:href="#DejaVuSans-48"/>
      </g>
     </g>
    </g>
    <g id="ytick_7">
     <g id="line2d_14">
      <g>
       <use style="stroke:#000000;stroke-width:0.8;" x="53.328125" xlink:href="#mb572c600fd" y="53.425332"/>
      </g>
     </g>
     <g id="text_15">
      <!-- 1750 -->
      <g transform="translate(20.878125 57.224551)scale(0.1 -0.1)">
       <use xlink:href="#DejaVuSans-49"/>
       <use x="63.623047" xlink:href="#DejaVuSans-55"/>
       <use x="127.246094" xlink:href="#DejaVuSans-53"/>
       <use x="190.869141" xlink:href="#DejaVuSans-48"/>
      </g>
     </g>
    </g>
    <g id="ytick_8">
     <g id="line2d_15">
      <g>
       <use style="stroke:#000000;stroke-width:0.8;" x="53.328125" xlink:href="#mb572c600fd" y="25.202499"/>
      </g>
     </g>
     <g id="text_16">
      <!-- 2000 -->
      <g transform="translate(20.878125 29.001717)scale(0.1 -0.1)">
       <use xlink:href="#DejaVuSans-50"/>
       <use x="63.623047" xlink:href="#DejaVuSans-48"/>
       <use x="127.246094" xlink:href="#DejaVuSans-48"/>
       <use x="190.869141" xlink:href="#DejaVuSans-48"/>
      </g>
     </g>
    </g>
    <g id="text_17">
     <!-- Actual # of seconds from terminal -->
     <g transform="translate(14.798438 216.613125)rotate(-90)scale(0.1 -0.1)">
      <defs>
       <path d="M 34.1875 63.1875 
L 20.796875 26.90625 
L 47.609375 26.90625 
z
M 28.609375 72.90625 
L 39.796875 72.90625 
L 67.578125 0 
L 57.328125 0 
L 50.6875 18.703125 
L 17.828125 18.703125 
L 11.1875 0 
L 0.78125 0 
z
" id="DejaVuSans-65"/>
      </defs>
      <use xlink:href="#DejaVuSans-65"/>
      <use x="66.658203" xlink:href="#DejaVuSans-99"/>
      <use x="121.638672" xlink:href="#DejaVuSans-116"/>
      <use x="160.847656" xlink:href="#DejaVuSans-117"/>
      <use x="224.226562" xlink:href="#DejaVuSans-97"/>
      <use x="285.505859" xlink:href="#DejaVuSans-108"/>
      <use x="313.289062" xlink:href="#DejaVuSans-32"/>
      <use x="345.076172" xlink:href="#DejaVuSans-35"/>
      <use x="428.865234" xlink:href="#DejaVuSans-32"/>
      <use x="460.652344" xlink:href="#DejaVuSans-111"/>
      <use x="521.833984" xlink:href="#DejaVuSans-102"/>
      <use x="557.039062" xlink:href="#DejaVuSans-32"/>
      <use x="588.826172" xlink:href="#DejaVuSans-115"/>
      <use x="640.925781" xlink:href="#DejaVuSans-101"/>
      <use x="702.449219" xlink:href="#DejaVuSans-99"/>
      <use x="757.429688" xlink:href="#DejaVuSans-111"/>
      <use x="818.611328" xlink:href="#DejaVuSans-110"/>
      <use x="881.990234" xlink:href="#DejaVuSans-100"/>
      <use x="945.466797" xlink:href="#DejaVuSans-115"/>
      <use x="997.566406" xlink:href="#DejaVuSans-32"/>
      <use x="1029.353516" xlink:href="#DejaVuSans-102"/>
      <use x="1064.558594" xlink:href="#DejaVuSans-114"/>
      <use x="1103.421875" xlink:href="#DejaVuSans-111"/>
      <use x="1164.603516" xlink:href="#DejaVuSans-109"/>
      <use x="1262.015625" xlink:href="#DejaVuSans-32"/>
      <use x="1293.802734" xlink:href="#DejaVuSans-116"/>
      <use x="1333.011719" xlink:href="#DejaVuSans-101"/>
      <use x="1394.535156" xlink:href="#DejaVuSans-114"/>
      <use x="1433.898438" xlink:href="#DejaVuSans-109"/>
      <use x="1531.310547" xlink:href="#DejaVuSans-105"/>
      <use x="1559.09375" xlink:href="#DejaVuSans-110"/>
      <use x="1622.472656" xlink:href="#DejaVuSans-97"/>
      <use x="1683.751953" xlink:href="#DejaVuSans-108"/>
     </g>
    </g>
   </g>
   <g id="line2d_16">
    <path clip-path="url(#p62c6583c7a)" d="M 68.546307 229.293836 
L 78.17924 223.721372 
L 83.92195 220.399326 
L 93.554883 214.826862 
L 105.59605 207.861282 
L 118.748708 200.252725 
L 127.640646 195.108912 
L 132.82761 192.108355 
L 144.683528 185.249937 
L 153.760715 179.998961 
L 161.72641 175.390962 
L 168.210115 171.640265 
L 178.213545 165.853475 
L 188.957971 159.638035 
L 203.592619 151.172176 
L 210.261573 147.314316 
L 228.415947 136.812364 
L 250.645792 123.952832 
L 265.650938 115.272647 
L 280.100338 106.913951 
L 288.43653 102.091626 
L 306.220406 91.804 
L 309.740132 89.767907 
L 315.482842 86.445861 
L 318.817319 84.516932 
L 323.633785 81.730699 
L 328.450252 78.944467 
L 332.340475 76.694049 
L 336.415947 74.336468 
L 342.714403 70.692934 
L 348.086616 67.585214 
L 362.350767 59.33368 
L 366.981984 56.654611 
L 372.909943 53.225402 
L 68.546307 229.293836 
L 78.17924 223.721372 
L 83.92195 220.399326 
L 93.554883 214.826862 
L 105.59605 207.861282 
L 118.748708 200.252725 
L 127.640646 195.108912 
L 132.82761 192.108355 
L 144.683528 185.249937 
L 153.760715 179.998961 
L 161.72641 175.390962 
L 168.210115 171.640265 
L 178.213545 165.853475 
L 188.957971 159.638035 
L 203.592619 151.172176 
L 210.261573 147.314316 
L 228.415947 136.812364 
L 250.645792 123.952832 
L 265.650938 115.272647 
L 280.100338 106.913951 
L 288.43653 102.091626 
L 306.220406 91.804 
L 309.740132 89.767907 
L 315.482842 86.445861 
L 318.817319 84.516932 
L 323.633785 81.730699 
L 328.450252 78.944467 
L 332.340475 76.694049 
L 336.415947 74.336468 
L 342.714403 70.692934 
L 348.086616 67.585214 
L 362.350767 59.33368 
L 366.981984 56.654611 
L 372.909943 53.225402 
L 68.546307 229.293836 
L 78.17924 223.721372 
L 83.92195 220.399326 
L 93.554883 214.826862 
L 105.59605 207.861282 
L 118.748708 200.252725 
L 127.640646 195.108912 
L 132.82761 192.108355 
L 144.683528 185.249937 
L 153.760715 179.998961 
L 161.72641 175.390962 
L 168.210115 171.640265 
L 178.213545 165.853475 
L 188.957971 159.638035 
L 203.592619 151.172176 
L 210.261573 147.314316 
L 228.415947 136.812364 
L 250.645792 123.952832 
L 265.650938 115.272647 
L 280.100338 106.913951 
L 288.43653 102.091626 
L 306.220406 91.804 
L 309.740132 89.767907 
L 315.482842 86.445861 
L 318.817319 84.516932 
L 323.633785 81.730699 
L 328.450252 78.944467 
L 332.340475 76.694049 
L 336.415947 74.336468 
L 342.714403 70.692934 
L 348.086616 67.585214 
L 362.350767 59.33368 
L 366.981984 56.654611 
L 372.909943 53.225402 
" style="fill:none;stroke:#ff0000;stroke-linecap:square;stroke-width:1.5;"/>
   </g>
   <g id="patch_3">
    <path d="M 53.328125 239.758125 
L 53.328125 22.318125 
" style="fill:none;stroke:#000000;stroke-linecap:square;stroke-linejoin:miter;stroke-width:0.8;"/>
   </g>
   <g id="patch_4">
    <path d="M 388.128125 239.758125 
L 388.128125 22.318125 
" style="fill:none;stroke:#000000;stroke-linecap:square;stroke-linejoin:miter;stroke-width:0.8;"/>
   </g>
   <g id="patch_5">
    <path d="M 53.328125 239.758125 
L 388.128125 239.758125 
" style="fill:none;stroke:#000000;stroke-linecap:square;stroke-linejoin:miter;stroke-width:0.8;"/>
   </g>
   <g id="patch_6">
    <path d="M 53.328125 22.318125 
L 388.128125 22.318125 
" style="fill:none;stroke:#000000;stroke-linecap:square;stroke-linejoin:miter;stroke-width:0.8;"/>
   </g>
   <g id="text_18">
    <!-- Trip ID: 1332001 -->
    <g transform="translate(171.058438 16.318125)scale(0.12 -0.12)">
     <defs>
      <path d="M -0.296875 72.90625 
L 61.375 72.90625 
L 61.375 64.59375 
L 35.5 64.59375 
L 35.5 0 
L 25.59375 0 
L 25.59375 64.59375 
L -0.296875 64.59375 
z
" id="DejaVuSans-84"/>
      <path d="M 18.109375 8.203125 
L 18.109375 -20.796875 
L 9.078125 -20.796875 
L 9.078125 54.6875 
L 18.109375 54.6875 
L 18.109375 46.390625 
Q 20.953125 51.265625 25.265625 53.625 
Q 29.59375 56 35.59375 56 
Q 45.5625 56 51.78125 48.09375 
Q 58.015625 40.1875 58.015625 27.296875 
Q 58.015625 14.40625 51.78125 6.484375 
Q 45.5625 -1.421875 35.59375 -1.421875 
Q 29.59375 -1.421875 25.265625 0.953125 
Q 20.953125 3.328125 18.109375 8.203125 
z
M 48.6875 27.296875 
Q 48.6875 37.203125 44.609375 42.84375 
Q 40.53125 48.484375 33.40625 48.484375 
Q 26.265625 48.484375 22.1875 42.84375 
Q 18.109375 37.203125 18.109375 27.296875 
Q 18.109375 17.390625 22.1875 11.75 
Q 26.265625 6.109375 33.40625 6.109375 
Q 40.53125 6.109375 44.609375 11.75 
Q 48.6875 17.390625 48.6875 27.296875 
z
" id="DejaVuSans-112"/>
      <path d="M 9.8125 72.90625 
L 19.671875 72.90625 
L 19.671875 0 
L 9.8125 0 
z
" id="DejaVuSans-73"/>
      <path d="M 19.671875 64.796875 
L 19.671875 8.109375 
L 31.59375 8.109375 
Q 46.6875 8.109375 53.6875 14.9375 
Q 60.6875 21.78125 60.6875 36.53125 
Q 60.6875 51.171875 53.6875 57.984375 
Q 46.6875 64.796875 31.59375 64.796875 
z
M 9.8125 72.90625 
L 30.078125 72.90625 
Q 51.265625 72.90625 61.171875 64.09375 
Q 71.09375 55.28125 71.09375 36.53125 
Q 71.09375 17.671875 61.125 8.828125 
Q 51.171875 0 30.078125 0 
L 9.8125 0 
z
" id="DejaVuSans-68"/>
      <path d="M 11.71875 12.40625 
L 22.015625 12.40625 
L 22.015625 0 
L 11.71875 0 
z
M 11.71875 51.703125 
L 22.015625 51.703125 
L 22.015625 39.3125 
L 11.71875 39.3125 
z
" id="DejaVuSans-58"/>
      <path d="M 40.578125 39.3125 
Q 47.65625 37.796875 51.625 33 
Q 55.609375 28.21875 55.609375 21.1875 
Q 55.609375 10.40625 48.1875 4.484375 
Q 40.765625 -1.421875 27.09375 -1.421875 
Q 22.515625 -1.421875 17.65625 -0.515625 
Q 12.796875 0.390625 7.625 2.203125 
L 7.625 11.71875 
Q 11.71875 9.328125 16.59375 8.109375 
Q 21.484375 6.890625 26.8125 6.890625 
Q 36.078125 6.890625 40.9375 10.546875 
Q 45.796875 14.203125 45.796875 21.1875 
Q 45.796875 27.640625 41.28125 31.265625 
Q 36.765625 34.90625 28.71875 34.90625 
L 20.21875 34.90625 
L 20.21875 43.015625 
L 29.109375 43.015625 
Q 36.375 43.015625 40.234375 45.921875 
Q 44.09375 48.828125 44.09375 54.296875 
Q 44.09375 59.90625 40.109375 62.90625 
Q 36.140625 65.921875 28.71875 65.921875 
Q 24.65625 65.921875 20.015625 65.03125 
Q 15.375 64.15625 9.8125 62.3125 
L 9.8125 71.09375 
Q 15.4375 72.65625 20.34375 73.4375 
Q 25.25 74.21875 29.59375 74.21875 
Q 40.828125 74.21875 47.359375 69.109375 
Q 53.90625 64.015625 53.90625 55.328125 
Q 53.90625 49.265625 50.4375 45.09375 
Q 46.96875 40.921875 40.578125 39.3125 
z
" id="DejaVuSans-51"/>
     </defs>
     <use xlink:href="#DejaVuSans-84"/>
     <use x="46.333984" xlink:href="#DejaVuSans-114"/>
     <use x="87.447266" xlink:href="#DejaVuSans-105"/>
     <use x="115.230469" xlink:href="#DejaVuSans-112"/>
     <use x="178.707031" xlink:href="#DejaVuSans-32"/>
     <use x="210.494141" xlink:href="#DejaVuSans-73"/>
     <use x="239.986328" xlink:href="#DejaVuSans-68"/>
     <use x="316.988281" xlink:href="#DejaVuSans-58"/>
     <use x="350.679688" xlink:href="#DejaVuSans-32"/>
     <use x="382.466797" xlink:href="#DejaVuSans-49"/>
     <use x="446.089844" xlink:href="#DejaVuSans-51"/>
     <use x="509.712891" xlink:href="#DejaVuSans-51"/>
     <use x="573.335938" xlink:href="#DejaVuSans-50"/>
     <use x="636.958984" xlink:href="#DejaVuSans-48"/>
     <use x="700.582031" xlink:href="#DejaVuSans-48"/>
     <use x="764.205078" xlink:href="#DejaVuSans-49"/>
    </g>
   </g>
  </g>
 </g>
 <defs>
  <clipPath id="p62c6583c7a">
   <rect height="217.44" width="334.8" x="53.328125" y="22.318125"/>
  </clipPath>
 </defs>
</svg>
